<svg width="222" height="132" viewBox="0 0 222 132" fill="none" xmlns="http://www.w3.org/2000/svg">
<g filter="url(#filter0_d_183_3970)">
<rect x="12" y="12" width="198" height="108" rx="4" fill="#4B4F52" shape-rendering="crispEdges"/>
<path d="M26.94 41.5V30.3H29.068L32.172 37.388L35.228 30.3H37.404V41.5H35.884V32.236L32.892 38.972H31.388L28.38 32.236V41.5H26.94ZM43.4518 41.692C42.2571 41.692 41.3078 41.3133 40.6038 40.556C39.9104 39.788 39.5638 38.716 39.5638 37.34C39.5638 36.508 39.7184 35.7667 40.0278 35.116C40.3478 34.4547 40.7904 33.9373 41.3558 33.564C41.9211 33.18 42.5771 32.988 43.3238 32.988C44.1238 32.988 44.7851 33.164 45.3078 33.516C45.8411 33.8573 46.2411 34.3213 46.5078 34.908C46.7744 35.4947 46.9078 36.14 46.9078 36.844C46.9078 37.2173 46.8918 37.58 46.8598 37.932H41.0358C41.1318 38.7107 41.4038 39.3187 41.8518 39.756C42.2998 40.1933 42.8918 40.412 43.6278 40.412C44.1078 40.412 44.5398 40.364 44.9238 40.268C45.3078 40.1613 45.6758 40.028 46.0278 39.868L46.3638 41.1C45.9798 41.2707 45.5478 41.4093 45.0678 41.516C44.5878 41.6333 44.0491 41.692 43.4518 41.692ZM41.0198 36.764H45.5798C45.5798 35.9533 45.3771 35.3293 44.9718 34.892C44.5664 34.4547 44.0064 34.236 43.2918 34.236C42.6731 34.236 42.1611 34.4547 41.7558 34.892C41.3504 35.3187 41.1051 35.9427 41.0198 36.764ZM41.9958 32.3L41.4998 31.324L44.5238 29.324L45.1958 30.668L41.9958 32.3ZM51.9789 41.692C51.2962 41.692 50.6722 41.516 50.1069 41.164C49.5415 40.812 49.0935 40.316 48.7629 39.676C48.4322 39.0253 48.2669 38.2627 48.2669 37.388C48.2669 36.5453 48.4322 35.7933 48.7629 35.132C49.1042 34.4707 49.5522 33.948 50.1069 33.564C50.6722 33.18 51.2909 32.988 51.9629 32.988C52.5175 32.988 52.9922 33.1 53.3869 33.324C53.7922 33.548 54.1069 33.7773 54.3309 34.012V29.66H55.7709V39.484C55.7709 39.8893 55.8669 40.156 56.0589 40.284C56.2615 40.4013 56.4802 40.46 56.7149 40.46L56.4109 41.58C55.3975 41.58 54.7789 41.1747 54.5549 40.364C54.3202 40.6947 53.9895 40.9987 53.5629 41.276C53.1469 41.5533 52.6189 41.692 51.9789 41.692ZM52.2989 40.412C52.6935 40.412 53.0669 40.3213 53.4189 40.14C53.7815 39.948 54.0855 39.7027 54.3309 39.404V35.276C54.1282 35.02 53.8455 34.7853 53.4829 34.572C53.1202 34.348 52.7202 34.236 52.2829 34.236C51.7709 34.236 51.3229 34.3747 50.9389 34.652C50.5549 34.9293 50.2562 35.3027 50.0429 35.772C49.8402 36.2307 49.7389 36.7533 49.7389 37.34C49.7389 37.9267 49.8509 38.4547 50.0749 38.924C50.2989 39.3827 50.6029 39.7453 50.9869 40.012C51.3815 40.2787 51.8189 40.412 52.2989 40.412ZM58.6394 41.5V33.18H60.0794V41.5H58.6394ZM59.3594 31.756C59.082 31.756 58.842 31.6547 58.6394 31.452C58.4474 31.2493 58.3514 31.0147 58.3514 30.748C58.3514 30.4387 58.442 30.1933 58.6234 30.012C58.8047 29.8307 59.05 29.74 59.3594 29.74C59.6367 29.74 59.8714 29.8413 60.0634 30.044C60.266 30.236 60.3674 30.4707 60.3674 30.748C60.3674 31.0467 60.2767 31.292 60.0954 31.484C59.914 31.6653 59.6687 31.756 59.3594 31.756ZM65.8234 41.692C65.13 41.692 64.5007 41.516 63.9354 41.164C63.37 40.812 62.9167 40.316 62.5754 39.676C62.2447 39.0253 62.0794 38.2627 62.0794 37.388C62.0794 36.556 62.2447 35.8093 62.5754 35.148C62.9167 34.4867 63.3807 33.964 63.9674 33.58C64.5647 33.1853 65.2474 32.988 66.0154 32.988C66.4954 32.988 66.9274 33.0733 67.3114 33.244C67.706 33.404 68.0474 33.6067 68.3354 33.852V33.18H69.6474V39.484C69.6474 39.8893 69.7434 40.156 69.9354 40.284C70.138 40.4013 70.3567 40.46 70.5914 40.46L70.2874 41.58C69.2634 41.58 68.6447 41.164 68.4314 40.332C68.186 40.6733 67.85 40.988 67.4234 41.276C67.0074 41.5533 66.474 41.692 65.8234 41.692ZM66.1434 40.412C66.5487 40.412 66.9327 40.316 67.2954 40.124C67.658 39.9213 67.962 39.6707 68.2074 39.372V34.908C67.9194 34.7053 67.5994 34.5453 67.2474 34.428C66.906 34.3 66.5434 34.236 66.1594 34.236C65.6474 34.236 65.194 34.3693 64.7994 34.636C64.4154 34.892 64.1114 35.2547 63.8874 35.724C63.6634 36.1827 63.5514 36.7213 63.5514 37.34C63.5514 37.9373 63.6634 38.4707 63.8874 38.94C64.1114 39.3987 64.4207 39.7613 64.8154 40.028C65.21 40.284 65.6527 40.412 66.1434 40.412ZM80.4633 41.692C79.7806 41.692 79.1566 41.516 78.5913 41.164C78.0259 40.812 77.5779 40.316 77.2473 39.676C76.9166 39.0253 76.7513 38.2627 76.7513 37.388C76.7513 36.5453 76.9166 35.7933 77.2473 35.132C77.5886 34.4707 78.0366 33.948 78.5913 33.564C79.1566 33.18 79.7753 32.988 80.4473 32.988C81.0019 32.988 81.4766 33.1 81.8713 33.324C82.2766 33.548 82.5913 33.7773 82.8153 34.012V29.66H84.2552V39.484C84.2552 39.8893 84.3513 40.156 84.5433 40.284C84.7459 40.4013 84.9646 40.46 85.1993 40.46L84.8953 41.58C83.8819 41.58 83.2633 41.1747 83.0393 40.364C82.8046 40.6947 82.4739 40.9987 82.0473 41.276C81.6313 41.5533 81.1033 41.692 80.4633 41.692ZM80.7833 40.412C81.1779 40.412 81.5513 40.3213 81.9033 40.14C82.2659 39.948 82.5699 39.7027 82.8153 39.404V35.276C82.6126 35.02 82.3299 34.7853 81.9673 34.572C81.6046 34.348 81.2046 34.236 80.7673 34.236C80.2553 34.236 79.8073 34.3747 79.4233 34.652C79.0393 34.9293 78.7406 35.3027 78.5273 35.772C78.3246 36.2307 78.2233 36.7533 78.2233 37.34C78.2233 37.9267 78.3353 38.4547 78.5593 38.924C78.7833 39.3827 79.0873 39.7453 79.4713 40.012C79.8659 40.2787 80.3033 40.412 80.7833 40.412ZM90.2955 41.692C89.1008 41.692 88.1515 41.3133 87.4475 40.556C86.7542 39.788 86.4075 38.716 86.4075 37.34C86.4075 36.508 86.5622 35.7667 86.8715 35.116C87.1915 34.4547 87.6342 33.9373 88.1995 33.564C88.7648 33.18 89.4208 32.988 90.1675 32.988C90.9675 32.988 91.6288 33.164 92.1515 33.516C92.6848 33.8573 93.0848 34.3213 93.3515 34.908C93.6182 35.4947 93.7515 36.14 93.7515 36.844C93.7515 37.2173 93.7355 37.58 93.7035 37.932H87.8795C87.9755 38.7107 88.2475 39.3187 88.6955 39.756C89.1435 40.1933 89.7355 40.412 90.4715 40.412C90.9515 40.412 91.3835 40.364 91.7675 40.268C92.1515 40.1613 92.5195 40.028 92.8715 39.868L93.2075 41.1C92.8235 41.2707 92.3915 41.4093 91.9115 41.516C91.4315 41.6333 90.8928 41.692 90.2955 41.692ZM87.8635 36.764H92.4235C92.4235 35.9533 92.2208 35.3293 91.8155 34.892C91.4102 34.4547 90.8502 34.236 90.1355 34.236C89.5168 34.236 89.0048 34.4547 88.5995 34.892C88.1942 35.3187 87.9488 35.9427 87.8635 36.764ZM100.628 41.5V30.3H102.148V41.5H100.628ZM104.874 41.5V33.18H106.266V34.572C106.564 34.124 106.943 33.7507 107.402 33.452C107.871 33.1427 108.426 32.988 109.066 32.988C110.004 32.988 110.703 33.2707 111.162 33.836C111.631 34.4013 111.866 35.148 111.866 36.076V41.5H110.426V36.236C110.426 35.6387 110.282 35.1587 109.994 34.796C109.716 34.4333 109.327 34.252 108.826 34.252C108.335 34.252 107.871 34.428 107.434 34.78C106.996 35.1213 106.623 35.5267 106.314 35.996V41.5H104.874ZM116.567 41.5L113.223 33.564L114.535 33.02L117.367 39.868L120.199 33.02L121.431 33.564L118.071 41.5H116.567ZM125.889 41.692C124.695 41.692 123.745 41.3133 123.041 40.556C122.348 39.788 122.001 38.716 122.001 37.34C122.001 36.508 122.156 35.7667 122.465 35.116C122.785 34.4547 123.228 33.9373 123.793 33.564C124.359 33.18 125.015 32.988 125.761 32.988C126.561 32.988 127.223 33.164 127.745 33.516C128.279 33.8573 128.679 34.3213 128.945 34.908C129.212 35.4947 129.345 36.14 129.345 36.844C129.345 37.2173 129.329 37.58 129.297 37.932H123.473C123.569 38.7107 123.841 39.3187 124.289 39.756C124.737 40.1933 125.329 40.412 126.065 40.412C126.545 40.412 126.977 40.364 127.361 40.268C127.745 40.1613 128.113 40.028 128.465 39.868L128.801 41.1C128.417 41.2707 127.985 41.4093 127.505 41.516C127.025 41.6333 126.487 41.692 125.889 41.692ZM123.457 36.764H128.017C128.017 35.9533 127.815 35.3293 127.409 34.892C127.004 34.4547 126.444 34.236 125.729 34.236C125.111 34.236 124.599 34.4547 124.193 34.892C123.788 35.3187 123.543 35.9427 123.457 36.764ZM133.504 41.692C132.875 41.692 132.304 41.612 131.792 41.452C131.291 41.292 130.875 41.084 130.544 40.828L131.152 39.628C131.43 39.8627 131.776 40.06 132.192 40.22C132.619 40.3693 133.072 40.444 133.552 40.444C134.15 40.444 134.598 40.348 134.896 40.156C135.206 39.9533 135.36 39.6973 135.36 39.388C135.36 39.164 135.302 38.9667 135.184 38.796C135.078 38.6253 134.875 38.46 134.576 38.3C134.278 38.1293 133.846 37.948 133.28 37.756C132.502 37.4893 131.915 37.1747 131.52 36.812C131.136 36.4387 130.944 35.9267 130.944 35.276C130.944 34.636 131.222 34.0973 131.776 33.66C132.342 33.212 133.12 32.988 134.112 32.988C134.646 32.988 135.12 33.0467 135.536 33.164C135.952 33.2707 136.326 33.4093 136.656 33.58L136.256 34.764C135.968 34.5933 135.638 34.4547 135.264 34.348C134.902 34.2413 134.496 34.188 134.048 34.188C133.494 34.188 133.072 34.3 132.784 34.524C132.496 34.748 132.352 34.9933 132.352 35.26C132.352 35.516 132.464 35.7347 132.688 35.916C132.912 36.0973 133.35 36.2947 134 36.508C135.056 36.86 135.792 37.2493 136.208 37.676C136.624 38.1027 136.832 38.636 136.832 39.276C136.832 40.0227 136.528 40.6147 135.92 41.052C135.323 41.4787 134.518 41.692 133.504 41.692ZM141.661 41.692C140.861 41.692 140.226 41.4307 139.757 40.908C139.298 40.3747 139.069 39.6173 139.069 38.636V34.732H137.629V33.484H139.101L139.405 30.86H140.509V33.484H142.813V34.732H140.509V38.748C140.509 39.3667 140.637 39.7987 140.893 40.044C141.159 40.2893 141.474 40.412 141.837 40.412C142.103 40.412 142.354 40.3693 142.589 40.284C142.834 40.1987 143.058 40.0973 143.261 39.98L143.661 41.132C143.447 41.26 143.159 41.3827 142.797 41.5C142.434 41.628 142.055 41.692 141.661 41.692ZM145.108 41.5V33.18H146.548V41.5H145.108ZM145.828 31.756C145.551 31.756 145.311 31.6547 145.108 31.452C144.916 31.2493 144.82 31.0147 144.82 30.748C144.82 30.4387 144.911 30.1933 145.092 30.012C145.273 29.8307 145.519 29.74 145.828 29.74C146.105 29.74 146.34 29.8413 146.532 30.044C146.735 30.236 146.836 30.4707 146.836 30.748C146.836 31.0467 146.745 31.292 146.564 31.484C146.383 31.6653 146.137 31.756 145.828 31.756ZM149.108 41.5V33.18H150.5V34.572C150.799 34.124 151.177 33.7507 151.636 33.452C152.095 33.1427 152.617 32.988 153.204 32.988C153.865 32.988 154.404 33.148 154.82 33.468C155.247 33.788 155.545 34.2147 155.716 34.748C156.047 34.2573 156.436 33.8413 156.884 33.5C157.343 33.1587 157.908 32.988 158.58 32.988C159.487 32.988 160.159 33.276 160.596 33.852C161.044 34.4173 161.268 35.1587 161.268 36.076V41.5H159.828V36.188C159.828 35.612 159.695 35.148 159.428 34.796C159.161 34.4333 158.793 34.252 158.324 34.252C157.844 34.252 157.396 34.4333 156.98 34.796C156.575 35.148 156.217 35.564 155.908 36.044V41.5H154.468V36.188C154.468 35.612 154.335 35.148 154.068 34.796C153.801 34.4333 153.433 34.252 152.964 34.252C152.495 34.252 152.052 34.428 151.636 34.78C151.22 35.1213 150.857 35.5267 150.548 35.996V41.5H149.108ZM167.077 41.692C165.882 41.692 164.933 41.3133 164.229 40.556C163.535 39.788 163.189 38.716 163.189 37.34C163.189 36.508 163.343 35.7667 163.653 35.116C163.973 34.4547 164.415 33.9373 164.981 33.564C165.546 33.18 166.202 32.988 166.949 32.988C167.749 32.988 168.41 33.164 168.933 33.516C169.466 33.8573 169.866 34.3213 170.133 34.908C170.399 35.4947 170.533 36.14 170.533 36.844C170.533 37.2173 170.517 37.58 170.485 37.932H164.661C164.757 38.7107 165.029 39.3187 165.477 39.756C165.925 40.1933 166.517 40.412 167.253 40.412C167.733 40.412 168.165 40.364 168.549 40.268C168.933 40.1613 169.301 40.028 169.653 39.868L169.989 41.1C169.605 41.2707 169.173 41.4093 168.693 41.516C168.213 41.6333 167.674 41.692 167.077 41.692ZM164.645 36.764H169.205C169.205 35.9533 169.002 35.3293 168.597 34.892C168.191 34.4547 167.631 34.236 166.917 34.236C166.298 34.236 165.786 34.4547 165.381 34.892C164.975 35.3187 164.73 35.9427 164.645 36.764ZM172.452 41.5V33.18H173.844V34.572C174.143 34.124 174.521 33.7507 174.98 33.452C175.449 33.1427 176.004 32.988 176.644 32.988C177.583 32.988 178.281 33.2707 178.74 33.836C179.209 34.4013 179.444 35.148 179.444 36.076V41.5H178.004V36.236C178.004 35.6387 177.86 35.1587 177.572 34.796C177.295 34.4333 176.905 34.252 176.404 34.252C175.913 34.252 175.449 34.428 175.012 34.78C174.575 35.1213 174.201 35.5267 173.892 35.996V41.5H172.452ZM184.833 41.692C184.033 41.692 183.398 41.4307 182.929 40.908C182.47 40.3747 182.241 39.6173 182.241 38.636V34.732H180.801V33.484H182.273L182.577 30.86H183.681V33.484H185.985V34.732H183.681V38.748C183.681 39.3667 183.809 39.7987 184.065 40.044C184.331 40.2893 184.646 40.412 185.009 40.412C185.275 40.412 185.526 40.3693 185.761 40.284C186.006 40.1987 186.23 40.0973 186.433 39.98L186.833 41.132C186.619 41.26 186.331 41.3827 185.969 41.5C185.606 41.628 185.227 41.692 184.833 41.692ZM191.472 41.692C190.682 41.692 189.973 41.5107 189.344 41.148C188.714 40.7747 188.218 40.2627 187.856 39.612C187.504 38.9507 187.328 38.1933 187.328 37.34C187.328 36.444 187.509 35.6707 187.872 35.02C188.234 34.3693 188.73 33.868 189.36 33.516C189.989 33.164 190.693 32.988 191.472 32.988C192.25 32.988 192.949 33.164 193.568 33.516C194.197 33.868 194.693 34.3693 195.056 35.02C195.429 35.66 195.616 36.4227 195.616 37.308C195.616 38.1933 195.434 38.9667 195.072 39.628C194.709 40.2787 194.213 40.7853 193.584 41.148C192.965 41.5107 192.261 41.692 191.472 41.692ZM191.472 40.412C192.314 40.412 192.97 40.1293 193.44 39.564C193.909 38.988 194.144 38.2467 194.144 37.34C194.144 36.7853 194.026 36.2787 193.792 35.82C193.557 35.3507 193.237 34.9773 192.832 34.7C192.437 34.412 191.984 34.268 191.472 34.268C190.629 34.268 189.973 34.5453 189.504 35.1C189.034 35.6547 188.799 36.3907 188.799 37.308C188.799 37.8627 188.917 38.38 189.152 38.86C189.386 39.3293 189.701 39.708 190.096 39.996C190.501 40.2733 190.96 40.412 191.472 40.412Z" fill="white"/>
<rect x="22" y="64.5" width="8" height="8" rx="1" fill="#3DFFDC"/>
<path d="M41.08 72.5V64.1H42.22V71.48H46.072V72.5H41.08ZM49.7169 72.644C49.1249 72.644 48.5929 72.508 48.1209 72.236C47.6489 71.956 47.2769 71.572 47.0049 71.084C46.7409 70.588 46.6089 70.02 46.6089 69.38C46.6089 68.708 46.7449 68.128 47.0169 67.64C47.2889 67.152 47.6609 66.776 48.1329 66.512C48.6049 66.248 49.1329 66.116 49.7169 66.116C50.3009 66.116 50.8249 66.248 51.2889 66.512C51.7609 66.776 52.1329 67.152 52.4049 67.64C52.6849 68.12 52.8249 68.692 52.8249 69.356C52.8249 70.02 52.6889 70.6 52.4169 71.096C52.1449 71.584 51.7729 71.964 51.3009 72.236C50.8369 72.508 50.3089 72.644 49.7169 72.644ZM49.7169 71.684C50.3489 71.684 50.8409 71.472 51.1929 71.048C51.5449 70.616 51.7209 70.06 51.7209 69.38C51.7209 68.964 51.6329 68.584 51.4569 68.24C51.2809 67.888 51.0409 67.608 50.7369 67.4C50.4409 67.184 50.1009 67.076 49.7169 67.076C49.0849 67.076 48.5929 67.284 48.2409 67.7C47.8889 68.116 47.7129 68.668 47.7129 69.356C47.7129 69.772 47.8009 70.16 47.9769 70.52C48.1529 70.872 48.3889 71.156 48.6849 71.372C48.9889 71.58 49.3329 71.684 49.7169 71.684ZM56.7808 72.644C56.1888 72.644 55.6688 72.508 55.2208 72.236C54.7808 71.956 54.4408 71.572 54.2008 71.084C53.9608 70.588 53.8408 70.02 53.8408 69.38C53.8408 68.78 53.9608 68.232 54.2008 67.736C54.4488 67.24 54.8008 66.848 55.2568 66.56C55.7128 66.264 56.2488 66.116 56.8648 66.116C57.2168 66.116 57.5248 66.148 57.7888 66.212C58.0608 66.276 58.3208 66.368 58.5688 66.488L58.2448 67.4C58.0208 67.288 57.8048 67.208 57.5968 67.16C57.3968 67.104 57.1728 67.076 56.9248 67.076C56.3648 67.076 55.8928 67.28 55.5088 67.688C55.1328 68.088 54.9448 68.644 54.9448 69.356C54.9448 69.788 55.0248 70.18 55.1848 70.532C55.3448 70.884 55.5648 71.164 55.8448 71.372C56.1328 71.58 56.4688 71.684 56.8528 71.684C57.1568 71.684 57.4168 71.652 57.6328 71.588C57.8488 71.516 58.0808 71.416 58.3288 71.288L58.6648 72.2C58.4168 72.336 58.1368 72.444 57.8248 72.524C57.5208 72.604 57.1728 72.644 56.7808 72.644ZM62.1918 72.644C61.6718 72.644 61.1998 72.512 60.7758 72.248C60.3518 71.984 60.0118 71.612 59.7558 71.132C59.5078 70.644 59.3838 70.072 59.3838 69.416C59.3838 68.792 59.5078 68.232 59.7558 67.736C60.0118 67.24 60.3598 66.848 60.7998 66.56C61.2478 66.264 61.7598 66.116 62.3358 66.116C62.6958 66.116 63.0198 66.18 63.3078 66.308C63.6038 66.428 63.8598 66.58 64.0758 66.764V66.26H65.0598V70.988C65.0598 71.292 65.1318 71.492 65.2758 71.588C65.4278 71.676 65.5918 71.72 65.7678 71.72L65.5398 72.56C64.7718 72.56 64.3078 72.248 64.1478 71.624C63.9638 71.88 63.7118 72.116 63.3918 72.332C63.0798 72.54 62.6798 72.644 62.1918 72.644ZM62.4318 71.684C62.7358 71.684 63.0238 71.612 63.2958 71.468C63.5678 71.316 63.7958 71.128 63.9798 70.904V67.556C63.7638 67.404 63.5238 67.284 63.2598 67.196C63.0038 67.1 62.7318 67.052 62.4438 67.052C62.0598 67.052 61.7198 67.152 61.4238 67.352C61.1358 67.544 60.9078 67.816 60.7398 68.168C60.5718 68.512 60.4878 68.916 60.4878 69.38C60.4878 69.828 60.5718 70.228 60.7398 70.58C60.9078 70.924 61.1398 71.196 61.4358 71.396C61.7318 71.588 62.0638 71.684 62.4318 71.684ZM69.394 72.644C68.794 72.644 68.318 72.448 67.966 72.056C67.622 71.656 67.45 71.088 67.45 70.352V67.424H66.37V66.488H67.474L67.702 64.52H68.53V66.488H70.258V67.424H68.53V70.436C68.53 70.9 68.626 71.224 68.818 71.408C69.018 71.592 69.254 71.684 69.526 71.684C69.726 71.684 69.914 71.652 70.09 71.588C70.274 71.524 70.442 71.448 70.594 71.36L70.894 72.224C70.734 72.32 70.518 72.412 70.246 72.5C69.974 72.596 69.69 72.644 69.394 72.644ZM74.1332 72.644C73.6132 72.644 73.1412 72.512 72.7172 72.248C72.2932 71.984 71.9532 71.612 71.6972 71.132C71.4492 70.644 71.3252 70.072 71.3252 69.416C71.3252 68.792 71.4492 68.232 71.6972 67.736C71.9532 67.24 72.3012 66.848 72.7412 66.56C73.1892 66.264 73.7012 66.116 74.2772 66.116C74.6372 66.116 74.9612 66.18 75.2492 66.308C75.5452 66.428 75.8012 66.58 76.0172 66.764V66.26H77.0012V70.988C77.0012 71.292 77.0732 71.492 77.2172 71.588C77.3692 71.676 77.5332 71.72 77.7092 71.72L77.4812 72.56C76.7132 72.56 76.2492 72.248 76.0892 71.624C75.9052 71.88 75.6532 72.116 75.3332 72.332C75.0212 72.54 74.6212 72.644 74.1332 72.644ZM74.3732 71.684C74.6772 71.684 74.9652 71.612 75.2372 71.468C75.5092 71.316 75.7372 71.128 75.9212 70.904V67.556C75.7052 67.404 75.4652 67.284 75.2012 67.196C74.9452 67.1 74.6732 67.052 74.3852 67.052C74.0012 67.052 73.6612 67.152 73.3652 67.352C73.0772 67.544 72.8492 67.816 72.6812 68.168C72.5132 68.512 72.4292 68.916 72.4292 69.38C72.4292 69.828 72.5132 70.228 72.6812 70.58C72.8492 70.924 73.0812 71.196 73.3772 71.396C73.6732 71.588 74.0052 71.684 74.3732 71.684ZM73.4732 65.6L73.1012 64.868L75.3692 63.368L75.8732 64.376L73.4732 65.6ZM79.1514 72.5V66.26H80.1954V67.616C80.2994 67.352 80.4394 67.108 80.6154 66.884C80.7914 66.652 81.0114 66.468 81.2754 66.332C81.5394 66.188 81.8474 66.116 82.1994 66.116C82.3194 66.116 82.4394 66.124 82.5594 66.14C82.6794 66.148 82.7794 66.164 82.8594 66.188L82.5354 67.304C82.3834 67.24 82.2034 67.208 81.9954 67.208C81.6994 67.208 81.4154 67.292 81.1434 67.46C80.8794 67.628 80.6594 67.888 80.4834 68.24C80.3154 68.592 80.2314 69.04 80.2314 69.584V72.5H79.1514ZM83.9444 72.5V66.26H85.0244V72.5H83.9444ZM84.4844 65.192C84.2764 65.192 84.0964 65.116 83.9444 64.964C83.8004 64.812 83.7284 64.636 83.7284 64.436C83.7284 64.204 83.7964 64.02 83.9324 63.884C84.0684 63.748 84.2524 63.68 84.4844 63.68C84.6924 63.68 84.8684 63.756 85.0124 63.908C85.1644 64.052 85.2404 64.228 85.2404 64.436C85.2404 64.66 85.1724 64.844 85.0364 64.988C84.9004 65.124 84.7164 65.192 84.4844 65.192ZM89.5724 72.644C88.9804 72.644 88.4484 72.508 87.9764 72.236C87.5044 71.956 87.1324 71.572 86.8604 71.084C86.5964 70.588 86.4644 70.02 86.4644 69.38C86.4644 68.708 86.6004 68.128 86.8724 67.64C87.1444 67.152 87.5164 66.776 87.9884 66.512C88.4604 66.248 88.9884 66.116 89.5724 66.116C90.1564 66.116 90.6804 66.248 91.1444 66.512C91.6164 66.776 91.9884 67.152 92.2604 67.64C92.5404 68.12 92.6804 68.692 92.6804 69.356C92.6804 70.02 92.5444 70.6 92.2724 71.096C92.0004 71.584 91.6284 71.964 91.1564 72.236C90.6924 72.508 90.1644 72.644 89.5724 72.644ZM89.5724 71.684C90.2044 71.684 90.6964 71.472 91.0484 71.048C91.4004 70.616 91.5764 70.06 91.5764 69.38C91.5764 68.964 91.4884 68.584 91.3124 68.24C91.1364 67.888 90.8964 67.608 90.5924 67.4C90.2964 67.184 89.9564 67.076 89.5724 67.076C88.9404 67.076 88.4484 67.284 88.0964 67.7C87.7444 68.116 87.5684 68.668 87.5684 69.356C87.5684 69.772 87.6564 70.16 87.8324 70.52C88.0084 70.872 88.2444 71.156 88.5404 71.372C88.8444 71.58 89.1884 71.684 89.5724 71.684Z" fill="white" fill-opacity="0.6"/>
<path d="M179.66 72.644C179.052 72.644 178.524 72.54 178.076 72.332C177.628 72.124 177.28 71.844 177.032 71.492C176.792 71.132 176.672 70.736 176.672 70.304C176.672 69.784 176.812 69.332 177.092 68.948C177.38 68.564 177.828 68.24 178.436 67.976C178.012 67.744 177.684 67.476 177.452 67.172C177.228 66.86 177.116 66.476 177.116 66.02C177.116 65.612 177.224 65.256 177.44 64.952C177.656 64.64 177.948 64.396 178.316 64.22C178.692 64.044 179.108 63.956 179.564 63.956C180.06 63.956 180.496 64.048 180.872 64.232C181.248 64.408 181.54 64.652 181.748 64.964C181.964 65.276 182.072 65.624 182.072 66.008C182.072 66.496 181.948 66.892 181.7 67.196C181.452 67.5 181.12 67.756 180.704 67.964C181.296 68.212 181.748 68.524 182.06 68.9C182.372 69.268 182.528 69.712 182.528 70.232C182.528 70.712 182.404 71.136 182.156 71.504C181.908 71.864 181.568 72.144 181.136 72.344C180.704 72.544 180.212 72.644 179.66 72.644ZM179.72 67.568C180.072 67.448 180.376 67.264 180.632 67.016C180.896 66.768 181.028 66.468 181.028 66.116C181.028 65.748 180.888 65.444 180.608 65.204C180.328 64.964 179.98 64.844 179.564 64.844C179.156 64.844 178.82 64.952 178.556 65.168C178.292 65.376 178.16 65.652 178.16 65.996C178.16 66.34 178.3 66.652 178.58 66.932C178.868 67.212 179.248 67.424 179.72 67.568ZM179.672 71.684C180.184 71.684 180.604 71.552 180.932 71.288C181.26 71.016 181.424 70.672 181.424 70.256C181.424 69.872 181.252 69.528 180.908 69.224C180.572 68.92 180.104 68.66 179.504 68.444C179.2 68.516 178.916 68.628 178.652 68.78C178.388 68.932 178.176 69.12 178.016 69.344C177.856 69.568 177.776 69.824 177.776 70.112C177.776 70.408 177.856 70.676 178.016 70.916C178.184 71.156 178.412 71.344 178.7 71.48C178.988 71.616 179.312 71.684 179.672 71.684ZM186.783 72.644C185.847 72.644 185.135 72.264 184.647 71.504C184.159 70.736 183.915 69.664 183.915 68.288C183.915 66.904 184.163 65.836 184.659 65.084C185.163 64.332 185.879 63.956 186.807 63.956C187.743 63.956 188.455 64.336 188.943 65.096C189.431 65.856 189.675 66.928 189.675 68.312C189.675 69.696 189.423 70.764 188.919 71.516C188.423 72.268 187.711 72.644 186.783 72.644ZM186.795 71.66C187.155 71.66 187.463 71.556 187.719 71.348C187.983 71.132 188.183 70.78 188.319 70.292C188.463 69.804 188.535 69.148 188.535 68.324C188.535 67.22 188.379 66.38 188.067 65.804C187.763 65.228 187.339 64.94 186.795 64.94C186.435 64.94 186.123 65.048 185.859 65.264C185.603 65.472 185.403 65.82 185.259 66.308C185.123 66.788 185.055 67.444 185.055 68.276C185.055 69.38 185.207 70.22 185.511 70.796C185.823 71.372 186.251 71.66 186.795 71.66ZM193.499 72.98L192.779 72.524L198.023 63.62L198.743 64.076L193.499 72.98ZM192.887 69.26C192.223 69.26 191.715 69.028 191.363 68.564C191.019 68.1 190.847 67.452 190.847 66.62C190.847 65.788 191.023 65.148 191.375 64.7C191.735 64.244 192.243 64.016 192.899 64.016C193.563 64.016 194.071 64.244 194.423 64.7C194.775 65.148 194.951 65.788 194.951 66.62C194.951 67.444 194.771 68.092 194.411 68.564C194.059 69.028 193.551 69.26 192.887 69.26ZM192.899 68.456C193.235 68.456 193.495 68.32 193.679 68.048C193.863 67.776 193.955 67.3 193.955 66.62C193.955 66.028 193.863 65.58 193.679 65.276C193.495 64.964 193.231 64.808 192.887 64.808C192.567 64.808 192.311 64.944 192.119 65.216C191.935 65.48 191.843 65.948 191.843 66.62C191.843 67.22 191.935 67.676 192.119 67.988C192.303 68.3 192.563 68.456 192.899 68.456ZM198.671 72.572C198.007 72.572 197.499 72.34 197.147 71.876C196.803 71.412 196.631 70.764 196.631 69.932C196.631 69.1 196.807 68.46 197.159 68.012C197.519 67.556 198.027 67.328 198.683 67.328C199.347 67.328 199.855 67.556 200.207 68.012C200.559 68.46 200.735 69.1 200.735 69.932C200.735 70.756 200.555 71.404 200.195 71.876C199.843 72.34 199.335 72.572 198.671 72.572ZM198.683 71.768C199.019 71.768 199.279 71.632 199.463 71.36C199.647 71.088 199.739 70.612 199.739 69.932C199.739 69.34 199.647 68.892 199.463 68.588C199.279 68.276 199.015 68.12 198.671 68.12C198.351 68.12 198.095 68.256 197.903 68.528C197.719 68.792 197.627 69.26 197.627 69.932C197.627 70.532 197.719 70.988 197.903 71.3C198.087 71.612 198.347 71.768 198.683 71.768Z" fill="white"/>
<rect x="22" y="94.5" width="8" height="8" rx="1" fill="#36F097"/>
<path d="M43.204 102.5L40.12 94.4L41.236 93.968L43.876 101.252L46.528 94.004L47.56 94.4L44.488 102.5H43.204ZM50.7247 102.644C50.1327 102.644 49.6007 102.508 49.1287 102.236C48.6567 101.956 48.2847 101.572 48.0127 101.084C47.7487 100.588 47.6167 100.02 47.6167 99.38C47.6167 98.708 47.7527 98.128 48.0247 97.64C48.2967 97.152 48.6687 96.776 49.1407 96.512C49.6127 96.248 50.1407 96.116 50.7247 96.116C51.3087 96.116 51.8327 96.248 52.2967 96.512C52.7687 96.776 53.1407 97.152 53.4127 97.64C53.6927 98.12 53.8327 98.692 53.8327 99.356C53.8327 100.02 53.6967 100.6 53.4247 101.096C53.1527 101.584 52.7807 101.964 52.3087 102.236C51.8447 102.508 51.3167 102.644 50.7247 102.644ZM50.7247 101.684C51.3567 101.684 51.8487 101.472 52.2007 101.048C52.5527 100.616 52.7287 100.06 52.7287 99.38C52.7287 98.964 52.6407 98.584 52.4647 98.24C52.2887 97.888 52.0487 97.608 51.7447 97.4C51.4487 97.184 51.1087 97.076 50.7247 97.076C50.0927 97.076 49.6007 97.284 49.2487 97.7C48.8967 98.116 48.7207 98.668 48.7207 99.356C48.7207 99.772 48.8087 100.16 48.9847 100.52C49.1607 100.872 49.3967 101.156 49.6927 101.372C49.9967 101.58 50.3407 101.684 50.7247 101.684ZM57.7886 102.644C57.1966 102.644 56.6766 102.508 56.2286 102.236C55.7886 101.956 55.4486 101.572 55.2086 101.084C54.9686 100.588 54.8486 100.02 54.8486 99.38C54.8486 98.78 54.9686 98.232 55.2086 97.736C55.4566 97.24 55.8086 96.848 56.2646 96.56C56.7206 96.264 57.2566 96.116 57.8726 96.116C58.2246 96.116 58.5326 96.148 58.7966 96.212C59.0686 96.276 59.3286 96.368 59.5766 96.488L59.2526 97.4C59.0286 97.288 58.8126 97.208 58.6046 97.16C58.4046 97.104 58.1806 97.076 57.9326 97.076C57.3726 97.076 56.9006 97.28 56.5166 97.688C56.1406 98.088 55.9526 98.644 55.9526 99.356C55.9526 99.788 56.0326 100.18 56.1926 100.532C56.3526 100.884 56.5726 101.164 56.8526 101.372C57.1406 101.58 57.4766 101.684 57.8606 101.684C58.1646 101.684 58.4246 101.652 58.6406 101.588C58.8566 101.516 59.0886 101.416 59.3366 101.288L59.6726 102.2C59.4246 102.336 59.1446 102.444 58.8326 102.524C58.5286 102.604 58.1806 102.644 57.7886 102.644ZM63.3076 102.644C62.4116 102.644 61.6996 102.36 61.1716 101.792C60.6516 101.216 60.3916 100.412 60.3916 99.38C60.3916 98.756 60.5076 98.2 60.7396 97.712C60.9796 97.216 61.3116 96.828 61.7356 96.548C62.1596 96.26 62.6516 96.116 63.2116 96.116C63.8116 96.116 64.3076 96.248 64.6996 96.512C65.0996 96.768 65.3996 97.116 65.5996 97.556C65.7996 97.996 65.8996 98.48 65.8996 99.008C65.8996 99.288 65.8876 99.56 65.8636 99.824H61.4956C61.5676 100.408 61.7716 100.864 62.1076 101.192C62.4436 101.52 62.8876 101.684 63.4396 101.684C63.7996 101.684 64.1236 101.648 64.4116 101.576C64.6996 101.496 64.9756 101.396 65.2396 101.276L65.4916 102.2C65.2036 102.328 64.8796 102.432 64.5196 102.512C64.1596 102.6 63.7556 102.644 63.3076 102.644ZM61.4836 98.948H64.9036C64.9036 98.34 64.7516 97.872 64.4476 97.544C64.1436 97.216 63.7236 97.052 63.1876 97.052C62.7236 97.052 62.3396 97.216 62.0356 97.544C61.7316 97.864 61.5476 98.332 61.4836 98.948ZM61.6636 95.636L61.0996 94.748L62.8516 93.62H63.6196L65.3716 94.748L64.8076 95.636L63.2356 94.376L61.6636 95.636Z" fill="white" fill-opacity="0.6"/>
<path d="M177.056 102.5C177.032 102.356 177.02 102.208 177.02 102.056C177.02 101.536 177.108 101.072 177.284 100.664C177.468 100.248 177.704 99.872 177.992 99.536C178.28 99.192 178.584 98.876 178.904 98.588C179.232 98.292 179.536 98.012 179.816 97.748C180.104 97.476 180.34 97.204 180.524 96.932C180.708 96.66 180.8 96.376 180.8 96.08C180.8 95.744 180.676 95.468 180.428 95.252C180.18 95.028 179.86 94.916 179.468 94.916C179.132 94.916 178.824 94.984 178.544 95.12C178.272 95.248 178.016 95.424 177.776 95.648L177.176 94.916C177.496 94.628 177.848 94.396 178.232 94.22C178.624 94.044 179.076 93.956 179.588 93.956C180.06 93.956 180.472 94.048 180.824 94.232C181.176 94.408 181.448 94.652 181.64 94.964C181.84 95.276 181.94 95.624 181.94 96.008C181.94 96.392 181.856 96.748 181.688 97.076C181.52 97.404 181.304 97.712 181.04 98C180.776 98.288 180.492 98.568 180.188 98.84C179.884 99.104 179.592 99.376 179.312 99.656C179.032 99.936 178.792 100.228 178.592 100.532C178.4 100.836 178.28 101.164 178.232 101.516H181.928V102.5H177.056ZM186.783 102.644C185.847 102.644 185.135 102.264 184.647 101.504C184.159 100.736 183.915 99.664 183.915 98.288C183.915 96.904 184.163 95.836 184.659 95.084C185.163 94.332 185.879 93.956 186.807 93.956C187.743 93.956 188.455 94.336 188.943 95.096C189.431 95.856 189.675 96.928 189.675 98.312C189.675 99.696 189.423 100.764 188.919 101.516C188.423 102.268 187.711 102.644 186.783 102.644ZM186.795 101.66C187.155 101.66 187.463 101.556 187.719 101.348C187.983 101.132 188.183 100.78 188.319 100.292C188.463 99.804 188.535 99.148 188.535 98.324C188.535 97.22 188.379 96.38 188.067 95.804C187.763 95.228 187.339 94.94 186.795 94.94C186.435 94.94 186.123 95.048 185.859 95.264C185.603 95.472 185.403 95.82 185.259 96.308C185.123 96.788 185.055 97.444 185.055 98.276C185.055 99.38 185.207 100.22 185.511 100.796C185.823 101.372 186.251 101.66 186.795 101.66ZM193.499 102.98L192.779 102.524L198.023 93.62L198.743 94.076L193.499 102.98ZM192.887 99.26C192.223 99.26 191.715 99.028 191.363 98.564C191.019 98.1 190.847 97.452 190.847 96.62C190.847 95.788 191.023 95.148 191.375 94.7C191.735 94.244 192.243 94.016 192.899 94.016C193.563 94.016 194.071 94.244 194.423 94.7C194.775 95.148 194.951 95.788 194.951 96.62C194.951 97.444 194.771 98.092 194.411 98.564C194.059 99.028 193.551 99.26 192.887 99.26ZM192.899 98.456C193.235 98.456 193.495 98.32 193.679 98.048C193.863 97.776 193.955 97.3 193.955 96.62C193.955 96.028 193.863 95.58 193.679 95.276C193.495 94.964 193.231 94.808 192.887 94.808C192.567 94.808 192.311 94.944 192.119 95.216C191.935 95.48 191.843 95.948 191.843 96.62C191.843 97.22 191.935 97.676 192.119 97.988C192.303 98.3 192.563 98.456 192.899 98.456ZM198.671 102.572C198.007 102.572 197.499 102.34 197.147 101.876C196.803 101.412 196.631 100.764 196.631 99.932C196.631 99.1 196.807 98.46 197.159 98.012C197.519 97.556 198.027 97.328 198.683 97.328C199.347 97.328 199.855 97.556 200.207 98.012C200.559 98.46 200.735 99.1 200.735 99.932C200.735 100.756 200.555 101.404 200.195 101.876C199.843 102.34 199.335 102.572 198.671 102.572ZM198.683 101.768C199.019 101.768 199.279 101.632 199.463 101.36C199.647 101.088 199.739 100.612 199.739 99.932C199.739 99.34 199.647 98.892 199.463 98.588C199.279 98.276 199.015 98.12 198.671 98.12C198.351 98.12 198.095 98.256 197.903 98.528C197.719 98.792 197.627 99.26 197.627 99.932C197.627 100.532 197.719 100.988 197.903 101.3C198.087 101.612 198.347 101.768 198.683 101.768Z" fill="white"/>
</g>
<defs>
<filter id="filter0_d_183_3970" x="0" y="0" width="222" height="132" filterUnits="userSpaceOnUse" color-interpolation-filters="sRGB">
<feFlood flood-opacity="0" result="BackgroundImageFix"/>
<feColorMatrix in="SourceAlpha" type="matrix" values="0 0 0 0 0 0 0 0 0 0 0 0 0 0 0 0 0 0 127 0" result="hardAlpha"/>
<feOffset/>
<feGaussianBlur stdDeviation="6"/>
<feComposite in2="hardAlpha" operator="out"/>
<feColorMatrix type="matrix" values="0 0 0 0 0 0 0 0 0 0 0 0 0 0 0 0 0 0 0.2 0"/>
<feBlend mode="normal" in2="BackgroundImageFix" result="effect1_dropShadow_183_3970"/>
<feBlend mode="normal" in="SourceGraphic" in2="effect1_dropShadow_183_3970" result="shape"/>
</filter>
</defs>
</svg>
